<svg width="512" height="512" viewBox="0 0 512 512" fill="none" xmlns="http://www.w3.org/2000/svg">
<rect width="512" height="512" fill="#FF6B00"/>
<g clip-path="url(#clip0_222_22)">
<path d="M129.253 253.737L167.275 80.7943H206.346L202.281 95.5545L161.768 270.979H125.277L129.253 253.737ZM119.158 80.7943L151.28 255.043L154.78 270.979H114.045L73.5319 80.7943H119.158ZM223.128 254.129L254.987 80.7943H300.598L260.085 270.979H219.688L223.128 254.129ZM206.346 80.7943L245.285 254.782L248.964 270.979H212.377L170.946 95.2933L167.275 80.7943H206.346Z" fill="white"/>
<path d="M73.5319 80.7943H119.158L108.264 26.5532H62.6383L73.5319 80.7943Z" fill="white"/>
<path d="M336.091 396.636H288.734V361.238H336.091C342.544 361.238 347.777 360.149 351.789 357.972C355.801 355.795 358.722 352.791 360.554 348.96C362.472 345.041 363.432 340.643 363.432 335.767C363.432 330.542 362.472 325.709 360.554 321.268C358.722 316.827 355.801 313.256 351.789 310.557C347.777 307.77 342.544 306.377 336.091 306.377H306.002V461.163H260.085V270.979H336.091C351.353 270.979 364.478 273.765 375.467 279.339C386.543 284.912 395.046 292.575 400.977 302.328C406.907 311.994 409.872 323.053 409.872 335.506C409.872 347.784 406.907 358.495 400.977 367.638C395.046 376.782 386.543 383.923 375.467 389.06C364.478 394.111 351.353 396.636 336.091 396.636Z" fill="white"/>
<rect x="260.085" y="461.163" width="45.844" height="22.695" fill="white"/>
<rect width="45.3901" height="512" fill="white"/>
<rect y="512" width="45.3901" height="512" transform="rotate(-90 0 512)" fill="white"/>
<path fill-rule="evenodd" clip-rule="evenodd" d="M0 3.21865e-06L0 45.3901L112.113 45.3901L103.262 3.21865e-06L0 3.21865e-06Z" fill="white"/>
<path fill-rule="evenodd" clip-rule="evenodd" d="M512 3.21865e-06V45.3901L308.652 45.3901L317.504 3.21865e-06L512 3.21865e-06Z" fill="white"/>
<rect x="466.61" width="45.3901" height="512" fill="white"/>
</g>
<defs>
<clipPath id="clip0_222_22">
<rect width="512" height="512" fill="white"/>
</clipPath>
</defs>
</svg>
